<svg width="1536" height="1024" viewBox="0 0 1536 1024" fill="none" xmlns="http://www.w3.org/2000/svg">
<rect width="1536" height="1024" fill="url(#paint0_linear_567_65)"/>
<circle cx="70.5" cy="83.5" r="34.5" stroke="white" stroke-opacity="0.6" stroke-width="10"/>
<circle cx="919.5" cy="100.5" r="34.5" stroke="white" stroke-opacity="0.6" stroke-width="10"/>
<circle cx="326.5" cy="451.5" r="34.5" stroke="white" stroke-opacity="0.6" stroke-width="10"/>
<circle cx="1038.5" cy="512.5" r="34.5" stroke="white" stroke-opacity="0.6" stroke-width="10"/>
<circle cx="1443.5" cy="401.5" r="34.5" stroke="white" stroke-opacity="0.6" stroke-width="10"/>
<circle cx="961.5" cy="725.5" r="34.5" stroke="white" stroke-opacity="0.6" stroke-width="10"/>
<circle cx="414.5" cy="812.5" r="34.5" stroke="white" stroke-opacity="0.6" stroke-width="10"/>
<circle cx="1340.5" cy="968.5" r="34.5" stroke="white" stroke-opacity="0.6" stroke-width="10"/>
<circle cx="436.5" cy="257.5" r="34.5" stroke="white" stroke-opacity="0.6" stroke-width="10"/>
<circle cx="680.5" cy="196.5" r="7.5" fill="white" fill-opacity="0.6"/>
<circle cx="709.5" cy="196.5" r="7.5" fill="white" fill-opacity="0.6"/>
<circle cx="738.5" cy="196.5" r="7.5" fill="white" fill-opacity="0.6"/>
<circle cx="680.5" cy="228.5" r="7.5" fill="white" fill-opacity="0.6"/>
<circle cx="709.5" cy="228.5" r="7.5" fill="white" fill-opacity="0.6"/>
<circle cx="738.5" cy="228.5" r="7.5" fill="white" fill-opacity="0.6"/>
<circle cx="1220.5" cy="429.5" r="7.5" fill="white" fill-opacity="0.6"/>
<circle cx="1249.5" cy="429.5" r="7.5" fill="white" fill-opacity="0.6"/>
<circle cx="1278.5" cy="429.5" r="7.5" fill="white" fill-opacity="0.6"/>
<circle cx="1220.5" cy="461.5" r="7.5" fill="white" fill-opacity="0.6"/>
<circle cx="1249.5" cy="461.5" r="7.5" fill="white" fill-opacity="0.6"/>
<circle cx="1278.5" cy="461.5" r="7.5" fill="white" fill-opacity="0.6"/>
<circle cx="665.5" cy="724.5" r="7.5" fill="white" fill-opacity="0.6"/>
<circle cx="694.5" cy="724.5" r="7.5" fill="white" fill-opacity="0.6"/>
<circle cx="723.5" cy="724.5" r="7.5" fill="white" fill-opacity="0.6"/>
<circle cx="665.5" cy="756.5" r="7.5" fill="white" fill-opacity="0.6"/>
<circle cx="694.5" cy="756.5" r="7.5" fill="white" fill-opacity="0.6"/>
<circle cx="723.5" cy="756.5" r="7.5" fill="white" fill-opacity="0.6"/>
<circle cx="150.5" cy="837.5" r="7.5" fill="white" fill-opacity="0.6"/>
<circle cx="179.5" cy="837.5" r="7.5" fill="white" fill-opacity="0.6"/>
<circle cx="208.5" cy="837.5" r="7.5" fill="white" fill-opacity="0.6"/>
<circle cx="150.5" cy="869.5" r="7.5" fill="white" fill-opacity="0.6"/>
<circle cx="179.5" cy="869.5" r="7.5" fill="white" fill-opacity="0.6"/>
<circle cx="208.5" cy="869.5" r="7.5" fill="white" fill-opacity="0.6"/>
<rect x="164" y="213" width="62" height="63" rx="6" stroke="white" stroke-opacity="0.6" stroke-width="10"/>
<rect x="1393" y="54" width="62" height="63" rx="6" stroke="white" stroke-opacity="0.6" stroke-width="10"/>
<rect x="66" y="600" width="62" height="63" rx="6" stroke="white" stroke-opacity="0.6" stroke-width="10"/>
<rect x="763" y="522" width="62" height="63" rx="6" stroke="white" stroke-opacity="0.6" stroke-width="10"/>
<rect x="1409" y="795" width="62" height="63" rx="6" stroke="white" stroke-opacity="0.6" stroke-width="10"/>
<rect x="562" y="900" width="62" height="63" rx="6" stroke="white" stroke-opacity="0.6" stroke-width="10"/>
<rect x="1045" y="239" width="62" height="63" rx="6" stroke="white" stroke-opacity="0.6" stroke-width="10"/>
<path d="M513 74L509.237 70.7075L506.4 73.9498L509.187 77.2349L513 74ZM537.187 110.235C538.974 112.34 542.129 112.599 544.235 110.813C546.34 109.026 546.599 105.871 544.813 103.765L537.187 110.235ZM537.237 38.7075L509.237 70.7075L516.763 77.2925L544.763 45.2925L537.237 38.7075ZM509.187 77.2349L537.187 110.235L544.813 103.765L516.813 70.7651L509.187 77.2349Z" fill="white" fill-opacity="0.6"/>
<path d="M539 74L535.237 70.7075L532.4 73.9498L535.187 77.2349L539 74ZM563.187 110.235C564.974 112.34 568.129 112.599 570.235 110.813C572.34 109.026 572.599 105.871 570.813 103.765L563.187 110.235ZM563.237 38.7075L535.237 70.7075L542.763 77.2925L570.763 45.2925L563.237 38.7075ZM535.187 77.2349L563.187 110.235L570.813 103.765L542.813 70.7651L535.187 77.2349Z" fill="white" fill-opacity="0.6"/>
<path d="M565 74L561.237 70.7075L558.4 73.9498L561.187 77.2349L565 74ZM589.187 110.235C590.974 112.34 594.129 112.599 596.235 110.813C598.34 109.026 598.599 105.871 596.813 103.765L589.187 110.235ZM589.237 38.7075L561.237 70.7075L568.763 77.2925L596.763 45.2925L589.237 38.7075ZM561.187 77.2349L589.187 110.235L596.813 103.765L568.813 70.7651L561.187 77.2349Z" fill="white" fill-opacity="0.6"/>
<path d="M539 413L535.237 409.707L532.4 412.95L535.187 416.235L539 413ZM563.187 449.235C564.974 451.34 568.129 451.599 570.235 449.813C572.34 448.026 572.599 444.871 570.813 442.765L563.187 449.235ZM563.237 377.707L535.237 409.707L542.763 416.293L570.763 384.293L563.237 377.707ZM535.187 416.235L563.187 449.235L570.813 442.765L542.813 409.765L535.187 416.235Z" fill="white" fill-opacity="0.6"/>
<path d="M565 413L561.237 409.707L558.4 412.95L561.187 416.235L565 413ZM589.187 449.235C590.974 451.34 594.129 451.599 596.235 449.813C598.34 448.026 598.599 444.871 596.813 442.765L589.187 449.235ZM589.237 377.707L561.237 409.707L568.763 416.293L596.763 384.293L589.237 377.707ZM561.187 416.235L589.187 449.235L596.813 442.765L568.813 409.765L561.187 416.235Z" fill="white" fill-opacity="0.6"/>
<path d="M591 413L587.237 409.707L584.4 412.95L587.187 416.235L591 413ZM615.187 449.235C616.974 451.34 620.129 451.599 622.235 449.813C624.34 448.026 624.599 444.871 622.813 442.765L615.187 449.235ZM615.237 377.707L587.237 409.707L594.763 416.293L622.763 384.293L615.237 377.707ZM587.187 416.235L615.187 449.235L622.813 442.765L594.813 409.765L587.187 416.235Z" fill="white" fill-opacity="0.6"/>
<path d="M221 663L217.237 659.707L214.4 662.95L217.187 666.235L221 663ZM245.187 699.235C246.974 701.34 250.129 701.599 252.235 699.813C254.34 698.026 254.599 694.871 252.813 692.765L245.187 699.235ZM245.237 627.707L217.237 659.707L224.763 666.293L252.763 634.293L245.237 627.707ZM217.187 666.235L245.187 699.235L252.813 692.765L224.813 659.765L217.187 666.235Z" fill="white" fill-opacity="0.6"/>
<path d="M247 663L243.237 659.707L240.4 662.95L243.187 666.235L247 663ZM271.187 699.235C272.974 701.34 276.129 701.599 278.235 699.813C280.34 698.026 280.599 694.871 278.813 692.765L271.187 699.235ZM271.237 627.707L243.237 659.707L250.763 666.293L278.763 634.293L271.237 627.707ZM243.187 666.235L271.187 699.235L278.813 692.765L250.813 659.765L243.187 666.235Z" fill="white" fill-opacity="0.6"/>
<path d="M273 663L269.237 659.707L266.4 662.95L269.187 666.235L273 663ZM297.187 699.235C298.974 701.34 302.129 701.599 304.235 699.813C306.34 698.026 306.599 694.871 304.813 692.765L297.187 699.235ZM297.237 627.707L269.237 659.707L276.763 666.293L304.763 634.293L297.237 627.707ZM269.187 666.235L297.187 699.235L304.813 692.765L276.813 659.765L269.187 666.235Z" fill="white" fill-opacity="0.6"/>
<path d="M1261 254L1257.24 250.707L1254.4 253.95L1257.19 257.235L1261 254ZM1285.19 290.235C1286.97 292.34 1290.13 292.599 1292.23 290.813C1294.34 289.026 1294.6 285.871 1292.81 283.765L1285.19 290.235ZM1285.24 218.707L1257.24 250.707L1264.76 257.293L1292.76 225.293L1285.24 218.707ZM1257.19 257.235L1285.19 290.235L1292.81 283.765L1264.81 250.765L1257.19 257.235Z" fill="white" fill-opacity="0.6"/>
<path d="M1287 254L1283.24 250.707L1280.4 253.95L1283.19 257.235L1287 254ZM1311.19 290.235C1312.97 292.34 1316.13 292.599 1318.23 290.813C1320.34 289.026 1320.6 285.871 1318.81 283.765L1311.19 290.235ZM1311.24 218.707L1283.24 250.707L1290.76 257.293L1318.76 225.293L1311.24 218.707ZM1283.19 257.235L1311.19 290.235L1318.81 283.765L1290.81 250.765L1283.19 257.235Z" fill="white" fill-opacity="0.6"/>
<path d="M1313 254L1309.24 250.707L1306.4 253.95L1309.19 257.235L1313 254ZM1337.19 290.235C1338.97 292.34 1342.13 292.599 1344.23 290.813C1346.34 289.026 1346.6 285.871 1344.81 283.765L1337.19 290.235ZM1337.24 218.707L1309.24 250.707L1316.76 257.293L1344.76 225.293L1337.24 218.707ZM1309.19 257.235L1337.19 290.235L1344.81 283.765L1316.81 250.765L1309.19 257.235Z" fill="white" fill-opacity="0.6"/>
<path d="M1147 675L1143.24 671.707L1140.4 674.95L1143.19 678.235L1147 675ZM1171.19 711.235C1172.97 713.34 1176.13 713.599 1178.23 711.813C1180.34 710.026 1180.6 706.871 1178.81 704.765L1171.19 711.235ZM1171.24 639.707L1143.24 671.707L1150.76 678.293L1178.76 646.293L1171.24 639.707ZM1143.19 678.235L1171.19 711.235L1178.81 704.765L1150.81 671.765L1143.19 678.235Z" fill="white" fill-opacity="0.6"/>
<path d="M1173 675L1169.24 671.707L1166.4 674.95L1169.19 678.235L1173 675ZM1197.19 711.235C1198.97 713.34 1202.13 713.599 1204.23 711.813C1206.34 710.026 1206.6 706.871 1204.81 704.765L1197.19 711.235ZM1197.24 639.707L1169.24 671.707L1176.76 678.293L1204.76 646.293L1197.24 639.707ZM1169.19 678.235L1197.19 711.235L1204.81 704.765L1176.81 671.765L1169.19 678.235Z" fill="white" fill-opacity="0.6"/>
<path d="M1199 675L1195.24 671.707L1192.4 674.95L1195.19 678.235L1199 675ZM1223.19 711.235C1224.97 713.34 1228.13 713.599 1230.23 711.813C1232.34 710.026 1232.6 706.871 1230.81 704.765L1223.19 711.235ZM1223.24 639.707L1195.24 671.707L1202.76 678.293L1230.76 646.293L1223.24 639.707ZM1195.19 678.235L1223.19 711.235L1230.81 704.765L1202.81 671.765L1195.19 678.235Z" fill="white" fill-opacity="0.6"/>
<path d="M794 905L790.237 901.707L787.4 904.95L790.187 908.235L794 905ZM818.187 941.235C819.974 943.34 823.129 943.599 825.235 941.813C827.34 940.026 827.599 936.871 825.813 934.765L818.187 941.235ZM818.237 869.707L790.237 901.707L797.763 908.293L825.763 876.293L818.237 869.707ZM790.187 908.235L818.187 941.235L825.813 934.765L797.813 901.765L790.187 908.235Z" fill="white" fill-opacity="0.6"/>
<path d="M820 905L816.237 901.707L813.4 904.95L816.187 908.235L820 905ZM844.187 941.235C845.974 943.34 849.129 943.599 851.235 941.813C853.34 940.026 853.599 936.871 851.813 934.765L844.187 941.235ZM844.237 869.707L816.237 901.707L823.763 908.293L851.763 876.293L844.237 869.707ZM816.187 908.235L844.187 941.235L851.813 934.765L823.813 901.765L816.187 908.235Z" fill="white" fill-opacity="0.6"/>
<path d="M846 905L842.237 901.707L839.4 904.95L842.187 908.235L846 905ZM870.187 941.235C871.974 943.34 875.129 943.599 877.235 941.813C879.34 940.026 879.599 936.871 877.813 934.765L870.187 941.235ZM870.237 869.707L842.237 901.707L849.763 908.293L877.763 876.293L870.237 869.707ZM842.187 908.235L870.187 941.235L877.813 934.765L849.813 901.765L842.187 908.235Z" fill="white" fill-opacity="0.6"/>
<g filter="url(#filter0_d_567_65)">
<path d="M275.5 59.5C313.5 59.5 303.677 82.5 323.5 82.5C343.323 82.5 341.7 59.5 366.5 59.5C395 59.5 378.9 80.8 414.5 80" stroke="white" stroke-opacity="0.6" stroke-width="11" stroke-linecap="round" shape-rendering="crispEdges"/>
</g>
<g filter="url(#filter1_d_567_65)">
<path d="M276 92C314 92 304.177 115 324 115C343.823 115 342.2 92 367 92C395.5 92 379.4 113.3 415 112.5" stroke="white" stroke-opacity="0.6" stroke-width="11" stroke-linecap="round" shape-rendering="crispEdges"/>
</g>
<g filter="url(#filter2_d_567_65)">
<path d="M1089 60C1127 60 1117.18 83 1137 83C1156.82 83 1155.2 60 1180 60C1208.5 60 1192.4 81.3 1228 80.5" stroke="white" stroke-opacity="0.6" stroke-width="11" stroke-linecap="round" shape-rendering="crispEdges"/>
</g>
<g filter="url(#filter3_d_567_65)">
<path d="M1089.5 92.5C1127.5 92.5 1117.68 115.5 1137.5 115.5C1157.32 115.5 1155.7 92.5 1180.5 92.5C1209 92.5 1192.9 113.8 1228.5 113" stroke="white" stroke-opacity="0.6" stroke-width="11" stroke-linecap="round" shape-rendering="crispEdges"/>
</g>
<g filter="url(#filter4_d_567_65)">
<path d="M810 335C848 335 838.177 358 858 358C877.823 358 876.2 335 901 335C929.5 335 913.4 356.3 949 355.5" stroke="white" stroke-opacity="0.6" stroke-width="11" stroke-linecap="round" shape-rendering="crispEdges"/>
</g>
<g filter="url(#filter5_d_567_65)">
<path d="M810.5 367.5C848.5 367.5 838.677 390.5 858.5 390.5C878.323 390.5 876.7 367.5 901.5 367.5C930 367.5 913.9 388.8 949.5 388" stroke="white" stroke-opacity="0.6" stroke-width="11" stroke-linecap="round" shape-rendering="crispEdges"/>
</g>
<g filter="url(#filter6_d_567_65)">
<path d="M41 390C79 390 69.1773 413 89 413C108.823 413 107.2 390 132 390C160.5 390 144.4 411.3 180 410.5" stroke="white" stroke-opacity="0.6" stroke-width="11" stroke-linecap="round" shape-rendering="crispEdges"/>
</g>
<g filter="url(#filter7_d_567_65)">
<path d="M41.5 422.5C79.5 422.5 69.6773 445.5 89.5 445.5C109.323 445.5 107.7 422.5 132.5 422.5C161 422.5 144.9 443.8 180.5 443" stroke="white" stroke-opacity="0.6" stroke-width="11" stroke-linecap="round" shape-rendering="crispEdges"/>
</g>
<g filter="url(#filter8_d_567_65)">
<path d="M437 569C475 569 465.177 592 485 592C504.823 592 503.2 569 528 569C556.5 569 540.4 590.3 576 589.5" stroke="white" stroke-opacity="0.6" stroke-width="11" stroke-linecap="round" shape-rendering="crispEdges"/>
</g>
<g filter="url(#filter9_d_567_65)">
<path d="M437.5 601.5C475.5 601.5 465.677 624.5 485.5 624.5C505.323 624.5 503.7 601.5 528.5 601.5C557 601.5 540.9 622.8 576.5 622" stroke="white" stroke-opacity="0.6" stroke-width="11" stroke-linecap="round" shape-rendering="crispEdges"/>
</g>
<g filter="url(#filter10_d_567_65)">
<path d="M1354 573C1392 573 1382.18 596 1402 596C1421.82 596 1420.2 573 1445 573C1473.5 573 1457.4 594.3 1493 593.5" stroke="white" stroke-opacity="0.6" stroke-width="11" stroke-linecap="round" shape-rendering="crispEdges"/>
</g>
<g filter="url(#filter11_d_567_65)">
<path d="M1354.5 605.5C1392.5 605.5 1382.68 628.5 1402.5 628.5C1422.32 628.5 1420.7 605.5 1445.5 605.5C1474 605.5 1457.9 626.8 1493.5 626" stroke="white" stroke-opacity="0.6" stroke-width="11" stroke-linecap="round" shape-rendering="crispEdges"/>
</g>
<g filter="url(#filter12_d_567_65)">
<path d="M1088 842C1126 842 1116.18 865 1136 865C1155.82 865 1154.2 842 1179 842C1207.5 842 1191.4 863.3 1227 862.5" stroke="white" stroke-opacity="0.6" stroke-width="11" stroke-linecap="round" shape-rendering="crispEdges"/>
</g>
<g filter="url(#filter13_d_567_65)">
<path d="M1088.5 874.5C1126.5 874.5 1116.68 897.5 1136.5 897.5C1156.32 897.5 1154.7 874.5 1179.5 874.5C1208 874.5 1191.9 895.8 1227.5 895" stroke="white" stroke-opacity="0.6" stroke-width="11" stroke-linecap="round" shape-rendering="crispEdges"/>
</g>
<defs>
<filter id="filter0_d_567_65" x="266" y="54" width="158" height="42" filterUnits="userSpaceOnUse" color-interpolation-filters="sRGB">
<feFlood flood-opacity="0" result="BackgroundImageFix"/>
<feColorMatrix in="SourceAlpha" type="matrix" values="0 0 0 0 0 0 0 0 0 0 0 0 0 0 0 0 0 0 127 0" result="hardAlpha"/>
<feOffset dy="4"/>
<feGaussianBlur stdDeviation="2"/>
<feComposite in2="hardAlpha" operator="out"/>
<feColorMatrix type="matrix" values="0 0 0 0 0 0 0 0 0 0 0 0 0 0 0 0 0 0 0.25 0"/>
<feBlend mode="normal" in2="BackgroundImageFix" result="effect1_dropShadow_567_65"/>
<feBlend mode="normal" in="SourceGraphic" in2="effect1_dropShadow_567_65" result="shape"/>
</filter>
<filter id="filter1_d_567_65" x="266.5" y="86.5" width="158" height="42" filterUnits="userSpaceOnUse" color-interpolation-filters="sRGB">
<feFlood flood-opacity="0" result="BackgroundImageFix"/>
<feColorMatrix in="SourceAlpha" type="matrix" values="0 0 0 0 0 0 0 0 0 0 0 0 0 0 0 0 0 0 127 0" result="hardAlpha"/>
<feOffset dy="4"/>
<feGaussianBlur stdDeviation="2"/>
<feComposite in2="hardAlpha" operator="out"/>
<feColorMatrix type="matrix" values="0 0 0 0 0 0 0 0 0 0 0 0 0 0 0 0 0 0 0.25 0"/>
<feBlend mode="normal" in2="BackgroundImageFix" result="effect1_dropShadow_567_65"/>
<feBlend mode="normal" in="SourceGraphic" in2="effect1_dropShadow_567_65" result="shape"/>
</filter>
<filter id="filter2_d_567_65" x="1079.5" y="54.5" width="158" height="42" filterUnits="userSpaceOnUse" color-interpolation-filters="sRGB">
<feFlood flood-opacity="0" result="BackgroundImageFix"/>
<feColorMatrix in="SourceAlpha" type="matrix" values="0 0 0 0 0 0 0 0 0 0 0 0 0 0 0 0 0 0 127 0" result="hardAlpha"/>
<feOffset dy="4"/>
<feGaussianBlur stdDeviation="2"/>
<feComposite in2="hardAlpha" operator="out"/>
<feColorMatrix type="matrix" values="0 0 0 0 0 0 0 0 0 0 0 0 0 0 0 0 0 0 0.25 0"/>
<feBlend mode="normal" in2="BackgroundImageFix" result="effect1_dropShadow_567_65"/>
<feBlend mode="normal" in="SourceGraphic" in2="effect1_dropShadow_567_65" result="shape"/>
</filter>
<filter id="filter3_d_567_65" x="1080" y="87" width="158" height="42" filterUnits="userSpaceOnUse" color-interpolation-filters="sRGB">
<feFlood flood-opacity="0" result="BackgroundImageFix"/>
<feColorMatrix in="SourceAlpha" type="matrix" values="0 0 0 0 0 0 0 0 0 0 0 0 0 0 0 0 0 0 127 0" result="hardAlpha"/>
<feOffset dy="4"/>
<feGaussianBlur stdDeviation="2"/>
<feComposite in2="hardAlpha" operator="out"/>
<feColorMatrix type="matrix" values="0 0 0 0 0 0 0 0 0 0 0 0 0 0 0 0 0 0 0.25 0"/>
<feBlend mode="normal" in2="BackgroundImageFix" result="effect1_dropShadow_567_65"/>
<feBlend mode="normal" in="SourceGraphic" in2="effect1_dropShadow_567_65" result="shape"/>
</filter>
<filter id="filter4_d_567_65" x="800.5" y="329.5" width="158" height="42" filterUnits="userSpaceOnUse" color-interpolation-filters="sRGB">
<feFlood flood-opacity="0" result="BackgroundImageFix"/>
<feColorMatrix in="SourceAlpha" type="matrix" values="0 0 0 0 0 0 0 0 0 0 0 0 0 0 0 0 0 0 127 0" result="hardAlpha"/>
<feOffset dy="4"/>
<feGaussianBlur stdDeviation="2"/>
<feComposite in2="hardAlpha" operator="out"/>
<feColorMatrix type="matrix" values="0 0 0 0 0 0 0 0 0 0 0 0 0 0 0 0 0 0 0.25 0"/>
<feBlend mode="normal" in2="BackgroundImageFix" result="effect1_dropShadow_567_65"/>
<feBlend mode="normal" in="SourceGraphic" in2="effect1_dropShadow_567_65" result="shape"/>
</filter>
<filter id="filter5_d_567_65" x="801" y="362" width="158" height="42" filterUnits="userSpaceOnUse" color-interpolation-filters="sRGB">
<feFlood flood-opacity="0" result="BackgroundImageFix"/>
<feColorMatrix in="SourceAlpha" type="matrix" values="0 0 0 0 0 0 0 0 0 0 0 0 0 0 0 0 0 0 127 0" result="hardAlpha"/>
<feOffset dy="4"/>
<feGaussianBlur stdDeviation="2"/>
<feComposite in2="hardAlpha" operator="out"/>
<feColorMatrix type="matrix" values="0 0 0 0 0 0 0 0 0 0 0 0 0 0 0 0 0 0 0.25 0"/>
<feBlend mode="normal" in2="BackgroundImageFix" result="effect1_dropShadow_567_65"/>
<feBlend mode="normal" in="SourceGraphic" in2="effect1_dropShadow_567_65" result="shape"/>
</filter>
<filter id="filter6_d_567_65" x="31.5" y="384.5" width="158" height="42" filterUnits="userSpaceOnUse" color-interpolation-filters="sRGB">
<feFlood flood-opacity="0" result="BackgroundImageFix"/>
<feColorMatrix in="SourceAlpha" type="matrix" values="0 0 0 0 0 0 0 0 0 0 0 0 0 0 0 0 0 0 127 0" result="hardAlpha"/>
<feOffset dy="4"/>
<feGaussianBlur stdDeviation="2"/>
<feComposite in2="hardAlpha" operator="out"/>
<feColorMatrix type="matrix" values="0 0 0 0 0 0 0 0 0 0 0 0 0 0 0 0 0 0 0.25 0"/>
<feBlend mode="normal" in2="BackgroundImageFix" result="effect1_dropShadow_567_65"/>
<feBlend mode="normal" in="SourceGraphic" in2="effect1_dropShadow_567_65" result="shape"/>
</filter>
<filter id="filter7_d_567_65" x="32" y="417" width="158" height="42" filterUnits="userSpaceOnUse" color-interpolation-filters="sRGB">
<feFlood flood-opacity="0" result="BackgroundImageFix"/>
<feColorMatrix in="SourceAlpha" type="matrix" values="0 0 0 0 0 0 0 0 0 0 0 0 0 0 0 0 0 0 127 0" result="hardAlpha"/>
<feOffset dy="4"/>
<feGaussianBlur stdDeviation="2"/>
<feComposite in2="hardAlpha" operator="out"/>
<feColorMatrix type="matrix" values="0 0 0 0 0 0 0 0 0 0 0 0 0 0 0 0 0 0 0.25 0"/>
<feBlend mode="normal" in2="BackgroundImageFix" result="effect1_dropShadow_567_65"/>
<feBlend mode="normal" in="SourceGraphic" in2="effect1_dropShadow_567_65" result="shape"/>
</filter>
<filter id="filter8_d_567_65" x="427.5" y="563.5" width="158" height="42" filterUnits="userSpaceOnUse" color-interpolation-filters="sRGB">
<feFlood flood-opacity="0" result="BackgroundImageFix"/>
<feColorMatrix in="SourceAlpha" type="matrix" values="0 0 0 0 0 0 0 0 0 0 0 0 0 0 0 0 0 0 127 0" result="hardAlpha"/>
<feOffset dy="4"/>
<feGaussianBlur stdDeviation="2"/>
<feComposite in2="hardAlpha" operator="out"/>
<feColorMatrix type="matrix" values="0 0 0 0 0 0 0 0 0 0 0 0 0 0 0 0 0 0 0.25 0"/>
<feBlend mode="normal" in2="BackgroundImageFix" result="effect1_dropShadow_567_65"/>
<feBlend mode="normal" in="SourceGraphic" in2="effect1_dropShadow_567_65" result="shape"/>
</filter>
<filter id="filter9_d_567_65" x="428" y="596" width="158" height="42" filterUnits="userSpaceOnUse" color-interpolation-filters="sRGB">
<feFlood flood-opacity="0" result="BackgroundImageFix"/>
<feColorMatrix in="SourceAlpha" type="matrix" values="0 0 0 0 0 0 0 0 0 0 0 0 0 0 0 0 0 0 127 0" result="hardAlpha"/>
<feOffset dy="4"/>
<feGaussianBlur stdDeviation="2"/>
<feComposite in2="hardAlpha" operator="out"/>
<feColorMatrix type="matrix" values="0 0 0 0 0 0 0 0 0 0 0 0 0 0 0 0 0 0 0.25 0"/>
<feBlend mode="normal" in2="BackgroundImageFix" result="effect1_dropShadow_567_65"/>
<feBlend mode="normal" in="SourceGraphic" in2="effect1_dropShadow_567_65" result="shape"/>
</filter>
<filter id="filter10_d_567_65" x="1344.5" y="567.5" width="158" height="42" filterUnits="userSpaceOnUse" color-interpolation-filters="sRGB">
<feFlood flood-opacity="0" result="BackgroundImageFix"/>
<feColorMatrix in="SourceAlpha" type="matrix" values="0 0 0 0 0 0 0 0 0 0 0 0 0 0 0 0 0 0 127 0" result="hardAlpha"/>
<feOffset dy="4"/>
<feGaussianBlur stdDeviation="2"/>
<feComposite in2="hardAlpha" operator="out"/>
<feColorMatrix type="matrix" values="0 0 0 0 0 0 0 0 0 0 0 0 0 0 0 0 0 0 0.25 0"/>
<feBlend mode="normal" in2="BackgroundImageFix" result="effect1_dropShadow_567_65"/>
<feBlend mode="normal" in="SourceGraphic" in2="effect1_dropShadow_567_65" result="shape"/>
</filter>
<filter id="filter11_d_567_65" x="1345" y="600" width="158" height="42" filterUnits="userSpaceOnUse" color-interpolation-filters="sRGB">
<feFlood flood-opacity="0" result="BackgroundImageFix"/>
<feColorMatrix in="SourceAlpha" type="matrix" values="0 0 0 0 0 0 0 0 0 0 0 0 0 0 0 0 0 0 127 0" result="hardAlpha"/>
<feOffset dy="4"/>
<feGaussianBlur stdDeviation="2"/>
<feComposite in2="hardAlpha" operator="out"/>
<feColorMatrix type="matrix" values="0 0 0 0 0 0 0 0 0 0 0 0 0 0 0 0 0 0 0.25 0"/>
<feBlend mode="normal" in2="BackgroundImageFix" result="effect1_dropShadow_567_65"/>
<feBlend mode="normal" in="SourceGraphic" in2="effect1_dropShadow_567_65" result="shape"/>
</filter>
<filter id="filter12_d_567_65" x="1078.5" y="836.5" width="158" height="42" filterUnits="userSpaceOnUse" color-interpolation-filters="sRGB">
<feFlood flood-opacity="0" result="BackgroundImageFix"/>
<feColorMatrix in="SourceAlpha" type="matrix" values="0 0 0 0 0 0 0 0 0 0 0 0 0 0 0 0 0 0 127 0" result="hardAlpha"/>
<feOffset dy="4"/>
<feGaussianBlur stdDeviation="2"/>
<feComposite in2="hardAlpha" operator="out"/>
<feColorMatrix type="matrix" values="0 0 0 0 0 0 0 0 0 0 0 0 0 0 0 0 0 0 0.25 0"/>
<feBlend mode="normal" in2="BackgroundImageFix" result="effect1_dropShadow_567_65"/>
<feBlend mode="normal" in="SourceGraphic" in2="effect1_dropShadow_567_65" result="shape"/>
</filter>
<filter id="filter13_d_567_65" x="1079" y="869" width="158" height="42" filterUnits="userSpaceOnUse" color-interpolation-filters="sRGB">
<feFlood flood-opacity="0" result="BackgroundImageFix"/>
<feColorMatrix in="SourceAlpha" type="matrix" values="0 0 0 0 0 0 0 0 0 0 0 0 0 0 0 0 0 0 127 0" result="hardAlpha"/>
<feOffset dy="4"/>
<feGaussianBlur stdDeviation="2"/>
<feComposite in2="hardAlpha" operator="out"/>
<feColorMatrix type="matrix" values="0 0 0 0 0 0 0 0 0 0 0 0 0 0 0 0 0 0 0.25 0"/>
<feBlend mode="normal" in2="BackgroundImageFix" result="effect1_dropShadow_567_65"/>
<feBlend mode="normal" in="SourceGraphic" in2="effect1_dropShadow_567_65" result="shape"/>
</filter>
<linearGradient id="paint0_linear_567_65" x1="768" y1="0" x2="768" y2="1280" gradientUnits="userSpaceOnUse">
<stop stop-color="#0C4BAD"/>
<stop offset="1" stop-color="#00040A"/>
</linearGradient>
</defs>
</svg>
